<?xml version="1.0" encoding="UTF-8" standalone="no"?>
<!-- Created with Inkscape (http://www.inkscape.org/) -->

<svg
   xmlns:dc="http://purl.org/dc/elements/1.1/"
   xmlns:cc="http://creativecommons.org/ns#"
   xmlns:rdf="http://www.w3.org/1999/02/22-rdf-syntax-ns#"
   xmlns:svg="http://www.w3.org/2000/svg"
   xmlns="http://www.w3.org/2000/svg"
   xmlns:sodipodi="http://sodipodi.sourceforge.net/DTD/sodipodi-0.dtd"
   xmlns:inkscape="http://www.inkscape.org/namespaces/inkscape"
   version="1.1"
   width="250"
   height="38"
   viewBox="0 0 250 38"
   id="svg3147"
   inkscape:version="0.48.5 r10040"
   sodipodi:docname="qrcode-studio-logo-white.svg">
  <sodipodi:namedview
     pagecolor="#ffffff"
     bordercolor="#666666"
     borderopacity="1"
     objecttolerance="10"
     gridtolerance="10"
     guidetolerance="10"
     inkscape:pageopacity="0"
     inkscape:pageshadow="2"
     inkscape:window-width="2160"
     inkscape:window-height="1377"
     id="namedview3074"
     showgrid="false"
     inkscape:zoom="1.875"
     inkscape:cx="-2.1333333"
     inkscape:cy="15.5"
     inkscape:window-x="-8"
     inkscape:window-y="-8"
     inkscape:window-maximized="1"
     inkscape:current-layer="svg3147" />
  <defs
     id="defs3149" />
  <metadata
     id="metadata3152">
    <rdf:RDF>
      <cc:Work
         rdf:about="">
        <dc:format>image/svg+xml</dc:format>
        <dc:type
           rdf:resource="http://purl.org/dc/dcmitype/StillImage" />
        <dc:title></dc:title>
      </cc:Work>
    </rdf:RDF>
  </metadata>
  <g
     transform="matrix(1.25,0,0,1.25,1.0991778e-7,-1277.0277)"
     id="layer1"
     style="fill:#1abc9c;fill-opacity:1">
    <g
       transform="matrix(1.1400767,0,0,1.1400767,-91.372322,954.3144)"
       id="g3252"
       style="fill:#1abc9c;fill-opacity:1">
      <g
         transform="matrix(0.9999987,0,0,1.0000013,0,0.40013342)"
         id="text3041"
         style="font-size:12.81499576999999900px;font-style:normal;font-variant:normal;font-weight:600;font-stretch:normal;line-height:103.99999619000000000%;letter-spacing:0px;word-spacing:0px;fill:#1abc9c;fill-opacity:1;stroke:none;font-family:Open Sans;-inkscape-font-specification:Open Sans Semi-Bold">
        <path
           d="m 113.5812,73.62821 0,5.548159 -4.11941,0 0,-15.247008 4.99543,0 c 4.14373,1.5e-5 6.2156,1.501771 6.21561,4.505272 -1e-5,1.765964 -0.86213,3.132144 -2.58636,4.098545 l 4.4427,6.643191 -4.67213,0 -3.23295,-5.548159 z m 0,-3.097375 0.77174,0 c 1.43917,9e-6 2.15876,-0.636151 2.15877,-1.908483 -10e-6,-1.049828 -0.70569,-1.574747 -2.11706,-1.574759 l -0.81345,0 z"
           id="path3196"
           style="font-weight:800;text-align:start;line-height:103.99999619000000000%;writing-mode:lr-tb;text-anchor:start;fill:#1abc9c;font-family:Open Sans Extrabold;-inkscape-font-specification:'Open Sans Extrabold, Ultra-Bold';fill-opacity:1"
           inkscape:connector-curvature="0" />
        <path
           d="m 130.51268,67.089308 c -0.98032,1.2e-5 -1.74511,0.401523 -2.29435,1.204535 -0.54926,0.803033 -0.82389,1.91023 -0.82388,3.321595 -1e-5,2.933993 1.11588,4.400986 3.34766,4.400983 0.67439,3e-6 1.32794,-0.09386 1.96063,-0.281579 0.63267,-0.187716 1.26883,-0.413675 1.90848,-0.677877 l 0,3.483243 c -1.27233,0.563159 -2.71151,0.844738 -4.31755,0.844738 -2.30131,0 -4.06552,-0.667447 -5.29265,-2.002343 -1.22713,-1.334892 -1.8407,-3.264231 -1.8407,-5.788023 0,-1.578226 0.29723,-2.965265 0.89167,-4.161119 0.59445,-1.195831 1.44961,-2.115309 2.5655,-2.758436 1.11589,-0.643099 2.42819,-0.964655 3.9369,-0.964671 1.64775,1.6e-5 3.22251,0.358073 4.72428,1.074174 l -1.26189,3.243379 c -0.56317,-0.264187 -1.12633,-0.486669 -1.68948,-0.667448 -0.56317,-0.180755 -1.16804,-0.271139 -1.81462,-0.271151 z"
           id="path3198"
           style="font-weight:800;text-align:start;line-height:103.99999619000000000%;writing-mode:lr-tb;text-anchor:start;fill:#1abc9c;font-family:Open Sans Extrabold;-inkscape-font-specification:'Open Sans Extrabold, Ultra-Bold';fill-opacity:1"
           inkscape:connector-curvature="0" />
        <path
           d="m 151.62614,71.532007 c -2e-5,2.565507 -0.62923,4.515704 -1.88763,5.850596 -1.25843,1.334896 -3.10086,2.002343 -5.5273,2.002343 -2.3917,0 -4.22544,-0.670923 -5.50123,-2.012772 -1.2758,-1.341845 -1.9137,-3.295518 -1.9137,-5.861025 0,-2.537681 0.63442,-4.475711 1.90327,-5.814095 1.26884,-1.338357 3.11301,-2.007542 5.53252,-2.007557 2.42644,1.5e-5 4.26539,0.663986 5.51687,1.991914 1.25145,1.327955 1.87718,3.278152 1.8772,5.850596 z m -10.49145,0 c 0,2.947899 1.0255,4.421844 3.07652,4.421841 1.04288,3e-6 1.81635,-0.358054 2.32042,-1.074174 0.50405,-0.716111 0.75608,-1.831998 0.7561,-3.347667 -2e-5,-1.522606 -0.25552,-2.647185 -0.76653,-3.37374 -0.51102,-0.726532 -1.27407,-1.089804 -2.28913,-1.089816 -2.06493,1.2e-5 -3.09738,1.487862 -3.09738,4.463556 z"
           id="path3200"
           style="font-weight:800;text-align:start;line-height:103.99999619000000000%;writing-mode:lr-tb;text-anchor:start;fill:#1abc9c;font-family:Open Sans Extrabold;-inkscape-font-specification:'Open Sans Extrabold, Ultra-Bold';fill-opacity:1"
           inkscape:connector-curvature="0" />
        <path
           d="m 167.108,71.22957 c -1e-5,2.544649 -0.70048,4.505275 -2.10142,5.881882 -1.40095,1.376612 -3.37027,2.064917 -5.90795,2.064917 l -4.93286,0 0,-15.247008 5.27701,0 c 2.4473,1.5e-5 4.33666,0.625746 5.66809,1.877196 1.33141,1.251477 1.99712,3.059146 1.99713,5.423013 z m -4.27583,0.146004 c -1e-5,-1.39746 -0.27638,-2.433393 -0.8291,-3.107803 -0.55274,-0.674389 -1.39226,-1.011589 -2.51857,-1.011601 l -1.19932,0 0,8.541245 0.91774,0 c 1.25146,3e-6 2.16919,-0.363269 2.75322,-1.089817 0.58401,-0.72654 0.87602,-1.837213 0.87603,-3.332024 z"
           id="path3202"
           style="font-weight:800;text-align:start;line-height:103.99999619000000000%;writing-mode:lr-tb;text-anchor:start;fill:#1abc9c;font-family:Open Sans Extrabold;-inkscape-font-specification:'Open Sans Extrabold, Ultra-Bold';fill-opacity:1"
           inkscape:connector-curvature="0" />
        <path
           d="m 178.68947,79.176369 -9.05226,0 0,-15.247008 9.05226,0 0,3.305951 -4.93286,0 0,2.398641 4.56785,0 0,3.305951 -4.56785,0 0,2.878369 4.93286,0 z"
           id="path3204"
           style="font-weight:800;text-align:start;line-height:103.99999619000000000%;writing-mode:lr-tb;text-anchor:start;fill:#1abc9c;font-family:Open Sans Extrabold;-inkscape-font-specification:'Open Sans Extrabold, Ultra-Bold';fill-opacity:1"
           inkscape:connector-curvature="0" />
        <path
           d="m 191.3978,75.119538 c -1e-5,1.341851 -0.48669,2.388213 -1.46004,3.13909 -0.97337,0.750879 -2.29436,1.126318 -3.96297,1.126318 -1.80768,0 -3.19819,-0.232911 -4.17155,-0.698734 l 0,-1.710335 c 0.62573,0.2642 1.30708,0.472777 2.04406,0.625732 0.73697,0.152959 1.46699,0.229437 2.19006,0.229435 1.18193,2e-6 2.07186,-0.224219 2.66979,-0.672662 0.59791,-0.448439 0.89687,-1.072432 0.89688,-1.871982 -1e-5,-0.528391 -0.10603,-0.961189 -0.31808,-1.298394 -0.21206,-0.337195 -0.56664,-0.648322 -1.06374,-0.933384 -0.49712,-0.285049 -1.25321,-0.608344 -2.26828,-0.969885 -1.41833,-0.507531 -2.43167,-1.108928 -3.04002,-1.804194 -0.60835,-0.695249 -0.91253,-1.60256 -0.91252,-2.721936 -10e-6,-1.174973 0.44148,-2.110094 1.32446,-2.805366 0.88298,-0.695243 2.05101,-1.042871 3.5041,-1.042887 1.51566,1.6e-5 2.90965,0.278119 4.18198,0.83431 l -0.55273,1.543473 c -1.25843,-0.528383 -2.48208,-0.792581 -3.67096,-0.792594 -0.93861,1.3e-5 -1.6721,0.201638 -2.20049,0.604874 -0.5284,0.403263 -0.7926,0.962945 -0.7926,1.679048 0,0.528407 0.0973,0.961205 0.29201,1.298394 0.19467,0.337211 0.52318,0.6466 0.98553,0.92817 0.46234,0.281589 1.16976,0.592716 2.12227,0.933384 1.59909,0.570119 2.69933,1.181946 3.30074,1.835481 0.60139,0.653548 0.90209,1.501762 0.9021,2.544644 z"
           id="path3206"
           style="font-weight:normal;fill:#1abc9c;font-family:Open Sans;-inkscape-font-specification:Open Sans;fill-opacity:1"
           inkscape:connector-curvature="0" />
        <path
           d="m 198.99544,79.176369 -1.77291,0 0,-13.672249 -4.82856,0 0,-1.574759 11.43004,0 0,1.574759 -4.82857,0 z"
           id="path3208"
           style="font-weight:normal;fill:#1abc9c;font-family:Open Sans;-inkscape-font-specification:Open Sans;fill-opacity:1"
           inkscape:connector-curvature="0" />
        <path
           d="m 217.40782,63.929361 0,9.865711 c -2e-5,1.738148 -0.52494,3.104329 -1.57476,4.098546 -1.04985,0.994219 -2.49251,1.491328 -4.32798,1.491328 -1.83549,0 -3.25555,-0.500585 -4.2602,-1.501757 -1.00465,-1.001169 -1.50697,-2.377779 -1.50697,-4.129833 l 0,-9.823995 1.77291,0 0,9.949142 c 0,1.272326 0.34762,2.249162 1.04289,2.930512 0.69525,0.681355 1.71728,1.022031 3.06608,1.022029 1.28622,2e-6 2.27696,-0.342412 2.97223,-1.027243 0.69525,-0.684826 1.04288,-1.666877 1.04289,-2.946156 l 0,-9.928284 z"
           id="path3210"
           style="font-weight:normal;fill:#1abc9c;font-family:Open Sans;-inkscape-font-specification:Open Sans;fill-opacity:1"
           inkscape:connector-curvature="0" />
        <path
           d="m 233.41113,71.40686 c -2e-5,2.51684 -0.68311,4.440964 -2.04928,5.77238 -1.36619,1.33142 -3.33203,1.997129 -5.89752,1.997129 l -4.22369,0 0,-15.247008 4.67213,0 c 2.37082,1.5e-5 4.21325,0.657033 5.5273,1.971056 1.31402,1.31405 1.97104,3.149529 1.97106,5.506443 z m -1.8772,0.06257 c -1e-5,-1.988428 -0.49886,-3.486708 -1.49654,-4.494843 -0.99771,-1.008111 -2.48034,-1.512173 -4.44792,-1.512186 l -2.57593,0 0,12.18092 2.15878,0 c 2.11358,10e-7 3.70224,-0.519703 4.76599,-1.559116 1.06374,-1.039407 1.59561,-2.577664 1.59562,-4.614775 z"
           id="path3212"
           style="font-weight:normal;fill:#1abc9c;font-family:Open Sans;-inkscape-font-specification:Open Sans;fill-opacity:1"
           inkscape:connector-curvature="0" />
        <path
           d="m 236.58693,79.176369 0,-15.247008 1.7729,0 0,15.247008 z"
           id="path3214"
           style="font-weight:normal;fill:#1abc9c;font-family:Open Sans;-inkscape-font-specification:Open Sans;fill-opacity:1"
           inkscape:connector-curvature="0" />
        <path
           d="m 255.57289,71.532007 c -1e-5,2.440361 -0.61705,4.359271 -1.85112,5.756736 -1.2341,1.397469 -2.94964,2.096203 -5.14665,2.096203 -2.24569,0 -3.97862,-0.686567 -5.19879,-2.059702 -1.22018,-1.373131 -1.83027,-3.311161 -1.83027,-5.814095 0,-2.482061 0.61183,-4.406185 1.83548,-5.772379 1.22365,-1.366168 2.9618,-2.049258 5.21444,-2.049273 2.19005,1.5e-5 3.90039,0.695272 5.131,2.085774 1.2306,1.390528 1.8459,3.309438 1.84591,5.756736 z m -12.14963,0 c 0,2.064922 0.43975,3.630989 1.31925,4.698206 0.8795,1.067223 2.15703,1.600833 3.83261,1.600831 1.68947,2e-6 2.96527,-0.53187 3.8274,-1.595617 0.8621,-1.06374 1.29316,-2.631546 1.29318,-4.70342 -2e-5,-2.051001 -0.42934,-3.60664 -1.28797,-4.666919 -0.85865,-1.060256 -2.12924,-1.590389 -3.81175,-1.590403 -1.68948,1.4e-5 -2.97397,0.533624 -3.85347,1.600831 -0.8795,1.067233 -1.31925,2.619395 -1.31925,4.656491 z"
           id="path3216"
           style="font-weight:normal;fill:#1abc9c;font-family:Open Sans;-inkscape-font-specification:Open Sans;fill-opacity:1"
           inkscape:connector-curvature="0" />
      </g>
      <path
         d="m 93.239517,59.161878 c -7.22947,0 -13.09375,5.86428 -13.09375,13.09375 0,7.22947 5.86428,13.09375 13.09375,13.09375 7.229473,0 13.093753,-5.86428 13.093753,-13.09375 -0.003,-7.2276 -5.86615,-13.09375 -13.093753,-13.09375 z m 0,1.75 c 6.26585,0 11.341453,5.0779 11.343753,11.34375 0,6.26747 -5.076283,11.34375 -11.343753,11.34375 -6.26747,0 -11.34375,-5.07628 -11.34375,-11.34375 0,-6.26747 5.07628,-11.34375 11.34375,-11.34375 z"
         id="path3837"
         style="fill:#1abc9c;fill-opacity:1;fill-rule:nonzero;stroke:none"
         inkscape:connector-curvature="0" />
      <path
         d="m 93.302017,64.005628 c -3.74703,0 -6.78125,3.14436 -6.78125,7 0,0.53884 0.0439,1.05872 0.15625,1.5625 0.35111,-0.68599 0.81722,-1.30559 1.375,-1.84375 -0.18284,-0.36906 -0.28125,-0.80234 -0.28125,-1.28125 0,-1.27709 0.75097,-2.3125 1.6875,-2.3125 0.81153,0 1.52088,0.77397 1.6875,1.8125 0.68394,-0.19945 1.40461,-0.3125 2.15625,-0.3125 0.75073,0 1.4757,0.11269 2.15625,0.3125 0.17785,-0.96692 0.79828,-1.6875 1.5625,-1.6875 0.90144,0 1.65592,0.98951 1.65625,2.21875 0,0.43471 -0.092,0.84475 -0.25,1.1875 0.58946,0.55507 1.10047,1.18914 1.46875,1.90625 0.112303,-0.50378 0.187503,-1.02366 0.187503,-1.5625 -0.001,-3.85464 -3.035193,-7 -6.781253,-7 z"
         id="path3844"
         style="fill:#1abc9c;fill-opacity:1;fill-rule:nonzero;stroke:none"
         inkscape:connector-curvature="0" />
      <path
         d="m 93.302017,70.099378 c -3.20246,0 -5.8125,2.48628 -5.8125,5.53125 0,3.04497 2.61004,5.5 5.8125,5.5 3.20246,0 5.78125,-2.45503 5.78125,-5.5 -0.001,-3.04418 -2.57962,-5.53125 -5.78125,-5.53125 z m -4.78125,5.28125 a 0.54983231,0.54983231 0 0 1 0.0625,0 0.54983231,0.54983231 0 0 1 0.1875,0 c 2.76802,0.44479 5.70393,0.37596 8.8125,0 a 0.55043484,0.55043484 0 0 1 0.125,1.09375 c -3.17377,0.38384 -6.21864,0.46701 -9.125,0 a 0.54983231,0.54983231 0 0 1 -0.0625,-1.09375 z"
         id="path3854"
         style="fill:#1abc9c;fill-opacity:1;fill-rule:nonzero;stroke:none"
         inkscape:connector-curvature="0" />
      <path
         d="m 102.09415,80.113848 2.56592,1.7444 -2.20339,3.70424 -3.454953,-1.9414 z"
         id="rect3869"
         style="fill:#1abc9c;fill-opacity:1;fill-rule:nonzero;stroke:none"
         inkscape:connector-curvature="0" />
    </g>
  </g>
</svg>
