<?xml version="1.0" encoding="UTF-8" standalone="no"?>
<!-- Created with Inkscape (http://www.inkscape.org/) -->

<svg
   xmlns:dc="http://purl.org/dc/elements/1.1/"
   xmlns:cc="http://creativecommons.org/ns#"
   xmlns:rdf="http://www.w3.org/1999/02/22-rdf-syntax-ns#"
   xmlns:svg="http://www.w3.org/2000/svg"
   xmlns="http://www.w3.org/2000/svg"
   xmlns:sodipodi="http://sodipodi.sourceforge.net/DTD/sodipodi-0.dtd"
   xmlns:inkscape="http://www.inkscape.org/namespaces/inkscape"
   version="1.1"
   width="300"
   height="48"
   viewBox="0 0 300 48"
   id="svg3065"
   inkscape:version="0.48.5 r10040"
   sodipodi:docname="qr-code-monkey-logo-white.svg">
  <sodipodi:namedview
     pagecolor="#ffffff"
     bordercolor="#666666"
     borderopacity="1"
     objecttolerance="10"
     gridtolerance="10"
     guidetolerance="10"
     inkscape:pageopacity="0"
     inkscape:pageshadow="2"
     inkscape:window-width="2560"
     inkscape:window-height="1377"
     id="namedview4475"
     showgrid="false"
     inkscape:zoom="3.2526912"
     inkscape:cx="128.45112"
     inkscape:cy="46.475024"
     inkscape:window-x="-8"
     inkscape:window-y="-8"
     inkscape:window-maximized="1"
     inkscape:current-layer="svg3065" />
  <defs
     id="defs3067" />
  <metadata
     id="metadata3070">
    <rdf:RDF>
      <cc:Work
         rdf:about="">
        <dc:format>image/svg+xml</dc:format>
        <dc:type
           rdf:resource="http://purl.org/dc/dcmitype/StillImage" />
        <dc:title />
      </cc:Work>
    </rdf:RDF>
  </metadata>
  <g
     id="text3041"
     style="font-size:12.00001621px;font-style:normal;font-variant:normal;font-weight:600;font-stretch:normal;line-height:103.99999619%;letter-spacing:0px;word-spacing:0px;fill:#b3b3b3;fill-opacity:1;stroke:none;font-family:Open Sans;-inkscape-font-specification:Open Sans Semi-Bold"
     transform="matrix(1.6963378,0,0,1.6963422,-700.38262,-108.57549)" />
  <path
     inkscape:connector-curvature="0"
     id="path3108"
     style="font-size:12.00001621px;font-style:normal;font-variant:normal;font-weight:800;font-stretch:normal;text-align:start;line-height:103.99999619%;letter-spacing:0px;word-spacing:0px;writing-mode:lr-tb;text-anchor:start;fill:#ffffff;fill-opacity:1;stroke:none;font-family:Open Sans Extrabold;-inkscape-font-specification:'Open Sans Extrabold, Ultra-Bold'"
     d="m 55.515817,26.796972 0,8.741549 -6.490425,0 0,-24.022831 7.870676,0 c 6.528738,2.5e-5 9.793106,2.366155 9.79314,7.098402 -3.4e-5,2.782411 -1.358362,4.934934 -4.075001,6.457573 l 6.999791,10.466856 -7.361292,0 -5.093734,-8.741549 z m 0,-4.880153 1.215931,0 c 2.267526,1.4e-5 3.401296,-1.002305 3.401313,-3.006961 -1.7e-5,-1.654085 -1.11188,-2.481136 -3.335591,-2.481154 l -1.281653,0 z" />
  <path
     inkscape:connector-curvature="0"
     id="path3110"
     style="font-size:12.00001621px;font-style:normal;font-variant:normal;font-weight:800;font-stretch:normal;text-align:start;line-height:103.99999619%;letter-spacing:0px;word-spacing:0px;writing-mode:lr-tb;text-anchor:start;fill:#ffffff;fill-opacity:1;stroke:none;font-family:Open Sans Extrabold;-inkscape-font-specification:'Open Sans Extrabold, Ultra-Bold'"
     d="m 82.192594,16.49443 c -1.544572,1.9e-5 -2.749533,0.632631 -3.614917,1.897837 -0.8654,1.265239 -1.298091,3.009714 -1.298074,5.233426 -1.7e-5,4.622733 1.758141,6.934093 5.274476,6.934088 1.062564,5e-6 2.092268,-0.147882 3.089111,-0.44365 0.996826,-0.295762 1.999154,-0.651776 3.006968,-1.068047 l 0,5.488116 c -2.004656,0.887301 -4.272199,1.330951 -6.802627,1.330951 -3.62587,0 -6.405522,-1.051615 -8.338955,-3.154847 -1.933432,-2.103223 -2.900141,-5.143046 -2.900141,-9.119473 0,-2.486617 0.468295,-4.672002 1.404885,-6.556162 0.93659,-1.884123 2.283965,-3.332831 4.04214,-4.346128 1.758142,-1.013251 3.825761,-1.519888 6.202856,-1.519912 2.596149,2.4e-5 5.077295,0.564172 7.443453,1.692444 l -1.988201,5.11019 C 86.826244,17.557018 85.938954,17.206479 85.051663,16.921648 84.164356,16.636855 83.211327,16.494449 82.192594,16.49443 z" />
  <path
     inkscape:connector-curvature="0"
     id="path3112"
     style="font-size:12.00001621px;font-style:normal;font-variant:normal;font-weight:800;font-stretch:normal;text-align:start;line-height:103.99999619%;letter-spacing:0px;word-spacing:0px;writing-mode:lr-tb;text-anchor:start;fill:#ffffff;fill-opacity:1;stroke:none;font-family:Open Sans Extrabold;-inkscape-font-specification:'Open Sans Extrabold, Ultra-Bold'"
     d="m 115.45839,23.494242 c -5e-5,4.042154 -0.9914,7.114839 -2.97411,9.218062 -1.98275,2.103232 -4.88563,3.154847 -8.70865,3.154847 -3.76829,0 -6.65748,-1.057092 -8.667588,-3.171277 -2.010125,-2.114179 -3.015179,-5.192341 -3.015179,-9.234495 0,-3.998312 0.999585,-7.051826 2.99874,-9.160552 1.999154,-2.108684 4.904789,-3.163037 8.716877,-3.163061 3.82304,2.4e-5 6.72046,1.04616 8.69224,3.138413 1.97176,2.092295 2.95762,5.16498 2.95767,9.218063 z m -16.530039,0 c -2e-5,4.644641 1.615749,6.966955 4.847279,6.96695 1.64313,5e-6 2.86178,-0.564143 3.65599,-1.692444 0.79417,-1.128287 1.19125,-2.886453 1.19127,-5.274506 -2e-5,-2.398981 -0.40257,-4.170841 -1.20771,-5.315586 -0.80515,-1.144708 -2.00738,-1.717069 -3.6067,-1.71709 -3.25344,2.1e-5 -4.880149,2.344242 -4.880129,7.032676 z" />
  <path
     inkscape:connector-curvature="0"
     id="path3114"
     style="font-size:12.00001621px;font-style:normal;font-variant:normal;font-weight:800;font-stretch:normal;text-align:start;line-height:103.99999619%;letter-spacing:0px;word-spacing:0px;writing-mode:lr-tb;text-anchor:start;fill:#ffffff;fill-opacity:1;stroke:none;font-family:Open Sans Extrabold;-inkscape-font-specification:'Open Sans Extrabold, Ultra-Bold'"
     d="m 139.85117,23.017729 c -2e-5,4.009291 -1.10365,7.098407 -3.31093,9.267358 -2.2073,2.168957 -5.31011,3.253434 -9.30842,3.253434 l -7.77206,0 0,-24.022831 8.31431,0 c 3.85589,2.5e-5 6.83273,0.985911 8.93048,2.957667 2.09774,1.971797 3.1466,4.819919 3.14662,8.544372 z m -6.73689,0.230042 c -1e-5,-2.201805 -0.43545,-3.833997 -1.30629,-4.896583 -0.87087,-1.062552 -2.19361,-1.593835 -3.96819,-1.593854 l -1.88963,0 0,13.457385 1.44598,0 c 1.97176,7e-6 3.41772,-0.572357 4.3379,-1.71709 0.92015,-1.144718 1.38022,-2.894669 1.38023,-5.249858 z" />
  <path
     inkscape:connector-curvature="0"
     id="path3116"
     style="font-size:12.00001621px;font-style:normal;font-variant:normal;font-weight:800;font-stretch:normal;text-align:start;line-height:103.99999619%;letter-spacing:0px;word-spacing:0px;writing-mode:lr-tb;text-anchor:start;fill:#ffffff;fill-opacity:1;stroke:none;font-family:Open Sans Extrabold;-inkscape-font-specification:'Open Sans Extrabold, Ultra-Bold'"
     d="m 158.09862,35.538521 -14.26248,0 0,-24.022831 14.26248,0 0,5.208781 -7.77205,0 0,3.779241 7.19696,0 0,5.208781 -7.19697,0 0,4.53509 7.77206,0 z" />
  <path
     inkscape:connector-curvature="0"
     id="path3118"
     style="font-size:12.00001621000000000px;font-style:normal;font-variant:normal;font-weight:normal;font-stretch:normal;line-height:103.99999619000000000%;letter-spacing:0px;word-spacing:0px;fill:#ffffff;fill-opacity:1;stroke:#ffffff;stroke-width:0.29955027000000001;stroke-miterlimit:4;stroke-opacity:1;stroke-dasharray:none;font-family:Open Sans;-inkscape-font-specification:Open Sans"
     d="m 175.29003,35.538521 -8.15,-21.295205 -0.13139,0 c 0.15328,1.686985 0.23003,3.691625 0.23003,6.013924 l 0,15.281281 -2.57972,0 0,-24.022831 4.20644,0 7.60776,19.816371 0.13141,0 7.67348,-19.816371 4.17358,0 0,24.022831 -2.79334,0 0,-15.478459 c -3e-5,-1.774584 0.0767,-3.702542 0.23003,-5.783883 l -0.1314,0 -8.21573,21.262342 z" />
  <path
     inkscape:connector-curvature="0"
     id="path3120"
     style="font-size:12.00001621000000000px;font-style:normal;font-variant:normal;font-weight:normal;font-stretch:normal;line-height:103.99999619000000000%;letter-spacing:0px;word-spacing:0px;fill:#ffffff;fill-opacity:1;stroke:#ffffff;stroke-width:0.29955027000000001;stroke-miterlimit:4;stroke-opacity:1;stroke-dasharray:none;font-family:Open Sans;-inkscape-font-specification:Open Sans"
     d="m 215.53918,23.494242 c -3e-5,3.844977 -0.97221,6.868366 -2.91659,9.07018 -1.94439,2.201821 -4.64735,3.302729 -8.10891,3.302729 -3.53824,0 -6.26859,-1.081739 -8.19107,-3.245219 -1.92248,-2.163474 -2.88373,-5.216988 -2.88373,-9.160553 0,-3.910676 0.96399,-6.942284 2.89193,-9.094828 1.92796,-2.152499 4.66654,-3.228761 8.21573,-3.228785 3.4506,2.4e-5 6.14534,1.095455 8.08428,3.286296 1.93889,2.190885 2.90833,5.214274 2.90835,9.07018 z m -19.14262,0 c -2e-5,3.253443 0.69285,5.720902 2.07857,7.402383 1.38571,1.681492 3.39856,2.522237 6.03856,2.522235 2.66189,2e-6 4.67199,-0.838003 6.03034,-2.514018 1.35831,-1.676004 2.03748,-4.146204 2.0375,-7.4106 -2e-5,-3.231509 -0.67645,-5.682536 -2.02929,-7.35309 -1.35287,-1.670512 -3.35475,-2.505778 -6.00569,-2.5058 -2.66191,2.2e-5 -4.68571,0.840765 -6.07143,2.522232 -1.38572,1.681506 -2.07858,4.127057 -2.07857,7.336658 z" />
  <path
     inkscape:connector-curvature="0"
     id="path3122"
     style="font-size:12.00001621000000000px;font-style:normal;font-variant:normal;font-weight:normal;font-stretch:normal;line-height:103.99999619000000000%;letter-spacing:0px;word-spacing:0px;fill:#ffffff;fill-opacity:1;stroke:#ffffff;stroke-width:0.29955027000000001;stroke-miterlimit:4;stroke-opacity:1;stroke-dasharray:none;font-family:Open Sans;-inkscape-font-specification:Open Sans"
     d="m 239.34044,35.538521 -3.18769,0 -13.12871,-20.161433 -0.13141,0 c 0.17526,2.366153 0.26291,4.535107 0.26291,6.506869 l 0,13.654564 -2.57973,0 0,-24.022831 3.15483,0 13.09585,20.079275 0.13141,0 c -0.0219,-0.295763 -0.0712,-1.24605 -0.14789,-2.850863 -0.0767,-1.604801 -0.10416,-2.752264 -0.0821,-3.442395 l 0,-13.786017 2.61259,0 z" />
  <path
     inkscape:connector-curvature="0"
     id="path3124"
     style="font-size:12.00001621000000000px;font-style:normal;font-variant:normal;font-weight:normal;font-stretch:normal;line-height:103.99999619000000000%;letter-spacing:0px;word-spacing:0px;fill:#ffffff;fill-opacity:1;stroke:#ffffff;stroke-width:0.29955027000000001;stroke-miterlimit:4;stroke-opacity:1;stroke-dasharray:none;font-family:Open Sans;-inkscape-font-specification:Open Sans"
     d="m 262.96097,35.538521 -3.28628,0 -8.75795,-11.649922 -2.51401,2.23468 0,9.415242 -2.79335,0 0,-24.022831 2.79335,0 0,11.912826 10.89404,-11.912826 3.30272,0 -9.66169,10.433992 z" />
  <path
     inkscape:connector-curvature="0"
     id="path3126"
     style="font-size:12.00001621000000000px;font-style:normal;font-variant:normal;font-weight:normal;font-stretch:normal;line-height:103.99999619000000000%;letter-spacing:0px;word-spacing:0px;fill:#ffffff;fill-opacity:1;stroke:#ffffff;stroke-width:0.29955027000000001;stroke-miterlimit:4;stroke-opacity:1;stroke-dasharray:none;font-family:Open Sans;-inkscape-font-specification:Open Sans"
     d="m 279.30238,35.538521 -13.39164,0 0,-24.022831 13.39164,0 0,2.481154 -10.59829,0 0,7.739229 9.95747,0 0,2.464724 -9.95747,0 0,8.840138 10.59829,0 z" />
  <path
     inkscape:connector-curvature="0"
     id="path3128"
     style="font-size:12.00001621000000000px;font-style:normal;font-variant:normal;font-weight:normal;font-stretch:normal;line-height:103.99999619000000000%;letter-spacing:0px;word-spacing:0px;fill:#ffffff;fill-opacity:1;stroke:#ffffff;stroke-width:0.29955027000000001;stroke-miterlimit:4;stroke-opacity:1;stroke-dasharray:none;font-family:Open Sans;-inkscape-font-specification:Open Sans"
     d="m 290.41857,23.527106 6.40826,-12.011416 3.0234,0 -8.01855,14.706178 0,9.316653 -2.8262,0 0,-9.185201 -8.00213,-14.83763 3.05625,0 z" />
  <path
     style="fill:#ffffff;fill-opacity:1;fill-rule:nonzero;stroke:none"
     d="M 22.031278,2.0788761 C 9.8671181,2.0788761 3.0946877e-8,11.945994 3.0946877e-8,24.110154 3.0946877e-8,36.274312 9.8671181,46.141429 22.031278,46.141429 c 12.164158,0 22.031276,-9.867117 22.031276,-22.031275 C 44.057507,11.949141 34.19229,2.0788761 22.031278,2.0788761 z m 0,2.9445143 c 10.54279,0 19.082892,8.5439716 19.086762,19.0867636 0,10.545517 -8.541246,19.086761 -19.086762,19.086761 -10.545518,0 -19.0867637,-8.541244 -19.0867637,-19.086761 0,-10.545519 8.5412457,-19.0867636 19.0867637,-19.0867636 z"
     id="path3837"
     inkscape:connector-curvature="0"
     inkscape:export-filename="C:\xampp\htdocs\lumen\public\img\logo-qrcode-monkey-white.png"
     inkscape:export-xdpi="320"
     inkscape:export-ydpi="320" />
  <path
     style="fill:#ffffff;fill-opacity:1;fill-rule:nonzero;stroke:none"
     d="m 22.136438,10.228871 c -6.304676,0 -11.409992,5.290636 -11.409992,11.778058 0,0.906641 0.07387,1.78138 0.262902,2.62903 0.590771,-1.154233 1.375039,-2.196759 2.313547,-3.102256 -0.307643,-0.620972 -0.473225,-1.350002 -0.473225,-2.155806 0,-2.148806 1.263567,-3.890965 2.839352,-3.890965 1.365465,0 2.559003,1.302266 2.839354,3.049675 1.150783,-0.33559 2.363368,-0.525805 3.628062,-0.525805 1.263163,0 2.482983,0.18961 3.628062,0.525805 0.299247,-1.626919 1.343171,-2.839352 2.629032,-2.839352 1.516744,0 2.786217,1.66493 2.786772,3.733223 0,0.731435 -0.154798,1.421359 -0.420645,1.998064 0.991813,0.933949 1.851628,2.000822 2.471289,3.207417 0.188953,-0.84765 0.315483,-1.722389 0.315483,-2.62903 -0.0017,-6.485738 -5.106948,-11.778058 -11.409993,-11.778058 z"
     id="path3844"
     inkscape:connector-curvature="0"
     inkscape:export-filename="C:\xampp\htdocs\lumen\public\img\logo-qrcode-monkey-white.png"
     inkscape:export-xdpi="320"
     inkscape:export-ydpi="320" />
  <path
     inkscape:connector-curvature="0"
     style="fill:#ffffff;fill-opacity:1;fill-rule:nonzero;stroke:none"
     d="m 22.136438,20.48209 c -5.388394,0 -9.779993,4.183365 -9.779993,9.306769 0,5.123404 4.391599,9.254188 9.779993,9.254188 5.388394,0 9.727414,-4.130784 9.727414,-9.254188 -0.0017,-5.122075 -4.340417,-9.306769 -9.727414,-9.306769 z m -8.044834,8.886124 a 0.92513664,0.92513664 0 0 1 0.105162,0 0.92513664,0.92513664 0 0 1 0.315484,0 c 4.657414,0.748395 9.597315,0.632583 14.827732,0 a 0.92615065,0.92615065 0 0 1 0.210322,1.840322 c -5.34012,0.645842 -10.463356,0.785781 -15.353538,0 a 0.92513664,0.92513664 0 0 1 -0.105162,-1.840322 z"
     id="path3854" />
  <path
     style="fill:#ffffff;fill-opacity:1;fill-rule:nonzero;stroke:none"
     inkscape:transform-center-x="-2.9523159"
     inkscape:transform-center-y="3.7693576"
     d="m 36.929897,37.332234 4.317365,2.935092 -3.70738,6.232678 -5.813228,-3.266559 z"
     id="rect3869"
     inkscape:connector-curvature="0"
     sodipodi:nodetypes="ccccc"
     inkscape:export-filename="C:\xampp\htdocs\lumen\public\img\logo-qrcode-monkey-white.png"
     inkscape:export-xdpi="320"
     inkscape:export-ydpi="320" />
</svg>
